# xmcd
#
# Track frame offsets: 
#        150
#        13621
#        33618
#        46675
#        59021
#        71548
#        78477
#        85199
#        91177
#        106487
#        142304
#        142637
#        164224
#        166439
#        177079
#        195313
#        208734
#        220016
#        240785
#
# Disc length: 3361 seconds
#
# Revision: 0
# Processed by: cddbd v1.5.2PL0 Copyright (c) Steve Scherf et al.
# Submitted via: ExactAudioCopy v0.99pb4
#
DISCID=030d1f13
DTITLE=Willie Nelson - Burning Down Red Lodge  (2 of 3)  August 27, 20
DTITLE=01
DYEAR=2001
DGENRE=Country
TTITLE0=I Never Cared for You
TTITLE1=Instrumental
TTITLE2=Take You With Me
TTITLE3=Seven Spanish Angels
TTITLE4=City Of New Orleans
TTITLE5=To all The Girls I've Loved Before
TTITLE6=Lukenbach, TX
TTITLE7=Whiskey River
TTITLE8=Still Is Still Moving
TTITLE9=Milk Cow Blues
TTITLE10=Pancho And Lefty intro
TTITLE11=Pancho And Lefty
TTITLE12=Family Farmer Plug
TTITLE13=Please Don't Talk About Me When I'm Gone
TTITLE14=My Buckets Got a Hole in it > Jambalaya
TTITLE15=Blue Eyes Crying In the Rain
TTITLE16=Roll in My Sweet Babies Arms
TTITLE17=On the Road That Lies Before Me
TTITLE18=Just Because
EXTD=
EXTT0=
EXTT1=
EXTT2=
EXTT3=
EXTT4=
EXTT5=
EXTT6=
EXTT7=
EXTT8=
EXTT9=
EXTT10=
EXTT11=
EXTT12=
EXTT13=
EXTT14=
EXTT15=
EXTT16=
EXTT17=
EXTT18=
PLAYORDER=
